<mxfile host="app.diagrams.net" modified="2023-05-30T23:51:50.879Z" agent="Mozilla/5.0 (X11; Ubuntu; Linux x86_64; rv:109.0) Gecko/20100101 Firefox/113.0" etag="4WQtU2PVQ1XvsAmeoT2p" version="21.3.6" type="device" pages="2">
  <diagram id="C5RBs43oDa-KdzZeNtuy" name="Page-1">
    <mxGraphModel dx="2261" dy="704" grid="1" gridSize="10" guides="1" tooltips="1" connect="1" arrows="1" fold="1" page="1" pageScale="1" pageWidth="827" pageHeight="1169" math="0" shadow="0">
      <root>
        <mxCell id="WIyWlLk6GJQsqaUBKTNV-0" />
        <mxCell id="WIyWlLk6GJQsqaUBKTNV-1" parent="WIyWlLk6GJQsqaUBKTNV-0" />
        <mxCell id="y0eH7fsDz-ZYW2-2zwgD-8" style="edgeStyle=orthogonalEdgeStyle;rounded=0;orthogonalLoop=1;jettySize=auto;html=1;exitX=0.5;exitY=0;exitDx=0;exitDy=0;" parent="WIyWlLk6GJQsqaUBKTNV-1" source="y0eH7fsDz-ZYW2-2zwgD-0" target="y0eH7fsDz-ZYW2-2zwgD-5" edge="1">
          <mxGeometry relative="1" as="geometry" />
        </mxCell>
        <mxCell id="y0eH7fsDz-ZYW2-2zwgD-9" style="edgeStyle=orthogonalEdgeStyle;rounded=0;orthogonalLoop=1;jettySize=auto;html=1;exitX=0.75;exitY=0;exitDx=0;exitDy=0;entryX=0;entryY=0.3;entryDx=0;entryDy=0;entryPerimeter=0;" parent="WIyWlLk6GJQsqaUBKTNV-1" source="y0eH7fsDz-ZYW2-2zwgD-0" target="y0eH7fsDz-ZYW2-2zwgD-6" edge="1">
          <mxGeometry relative="1" as="geometry">
            <Array as="points">
              <mxPoint x="280" y="522" />
            </Array>
          </mxGeometry>
        </mxCell>
        <mxCell id="y0eH7fsDz-ZYW2-2zwgD-10" style="edgeStyle=orthogonalEdgeStyle;rounded=0;orthogonalLoop=1;jettySize=auto;html=1;exitX=0.75;exitY=0;exitDx=0;exitDy=0;entryX=0;entryY=0.5;entryDx=0;entryDy=0;" parent="WIyWlLk6GJQsqaUBKTNV-1" source="y0eH7fsDz-ZYW2-2zwgD-0" target="y0eH7fsDz-ZYW2-2zwgD-7" edge="1">
          <mxGeometry relative="1" as="geometry">
            <Array as="points">
              <mxPoint x="270" y="550" />
              <mxPoint x="270" y="480" />
            </Array>
          </mxGeometry>
        </mxCell>
        <mxCell id="y0eH7fsDz-ZYW2-2zwgD-11" style="edgeStyle=orthogonalEdgeStyle;rounded=0;orthogonalLoop=1;jettySize=auto;html=1;exitX=0.75;exitY=0;exitDx=0;exitDy=0;entryX=0;entryY=0.5;entryDx=0;entryDy=0;" parent="WIyWlLk6GJQsqaUBKTNV-1" source="y0eH7fsDz-ZYW2-2zwgD-0" target="y0eH7fsDz-ZYW2-2zwgD-3" edge="1">
          <mxGeometry relative="1" as="geometry">
            <Array as="points">
              <mxPoint x="260" y="550" />
              <mxPoint x="260" y="420" />
            </Array>
          </mxGeometry>
        </mxCell>
        <mxCell id="y0eH7fsDz-ZYW2-2zwgD-13" style="edgeStyle=orthogonalEdgeStyle;rounded=0;orthogonalLoop=1;jettySize=auto;html=1;exitX=0.25;exitY=0;exitDx=0;exitDy=0;entryX=1;entryY=0.5;entryDx=0;entryDy=0;" parent="WIyWlLk6GJQsqaUBKTNV-1" source="y0eH7fsDz-ZYW2-2zwgD-0" target="y0eH7fsDz-ZYW2-2zwgD-2" edge="1">
          <mxGeometry relative="1" as="geometry">
            <Array as="points">
              <mxPoint x="200" y="550" />
              <mxPoint x="200" y="480" />
            </Array>
          </mxGeometry>
        </mxCell>
        <mxCell id="y0eH7fsDz-ZYW2-2zwgD-16" style="edgeStyle=orthogonalEdgeStyle;rounded=0;orthogonalLoop=1;jettySize=auto;html=1;exitX=0;exitY=0.5;exitDx=0;exitDy=0;" parent="WIyWlLk6GJQsqaUBKTNV-1" source="y0eH7fsDz-ZYW2-2zwgD-0" target="y0eH7fsDz-ZYW2-2zwgD-4" edge="1">
          <mxGeometry relative="1" as="geometry" />
        </mxCell>
        <mxCell id="y0eH7fsDz-ZYW2-2zwgD-20" style="edgeStyle=orthogonalEdgeStyle;rounded=0;orthogonalLoop=1;jettySize=auto;html=1;exitX=1;exitY=0.5;exitDx=0;exitDy=0;entryX=0;entryY=0.5;entryDx=0;entryDy=0;" parent="WIyWlLk6GJQsqaUBKTNV-1" source="y0eH7fsDz-ZYW2-2zwgD-0" target="y0eH7fsDz-ZYW2-2zwgD-18" edge="1">
          <mxGeometry relative="1" as="geometry" />
        </mxCell>
        <mxCell id="y0eH7fsDz-ZYW2-2zwgD-23" style="edgeStyle=orthogonalEdgeStyle;rounded=0;orthogonalLoop=1;jettySize=auto;html=1;exitX=0;exitY=0.75;exitDx=0;exitDy=0;" parent="WIyWlLk6GJQsqaUBKTNV-1" source="y0eH7fsDz-ZYW2-2zwgD-0" target="y0eH7fsDz-ZYW2-2zwgD-17" edge="1">
          <mxGeometry relative="1" as="geometry">
            <Array as="points">
              <mxPoint x="190" y="610" />
            </Array>
          </mxGeometry>
        </mxCell>
        <mxCell id="y0eH7fsDz-ZYW2-2zwgD-25" style="edgeStyle=orthogonalEdgeStyle;rounded=0;orthogonalLoop=1;jettySize=auto;html=1;exitX=1;exitY=0.75;exitDx=0;exitDy=0;entryX=0;entryY=0.5;entryDx=0;entryDy=0;" parent="WIyWlLk6GJQsqaUBKTNV-1" edge="1">
          <mxGeometry relative="1" as="geometry">
            <mxPoint x="310" y="596" as="sourcePoint" />
            <mxPoint x="440" y="611" as="targetPoint" />
            <Array as="points">
              <mxPoint x="310" y="597" />
              <mxPoint x="441" y="597" />
            </Array>
          </mxGeometry>
        </mxCell>
        <mxCell id="y0eH7fsDz-ZYW2-2zwgD-27" style="edgeStyle=orthogonalEdgeStyle;rounded=0;orthogonalLoop=1;jettySize=auto;html=1;exitX=0.25;exitY=0;exitDx=0;exitDy=0;entryX=1;entryY=0.5;entryDx=0;entryDy=0;" parent="WIyWlLk6GJQsqaUBKTNV-1" source="y0eH7fsDz-ZYW2-2zwgD-0" target="y0eH7fsDz-ZYW2-2zwgD-1" edge="1">
          <mxGeometry relative="1" as="geometry">
            <Array as="points">
              <mxPoint x="230" y="550" />
              <mxPoint x="230" y="330" />
            </Array>
          </mxGeometry>
        </mxCell>
        <mxCell id="y0eH7fsDz-ZYW2-2zwgD-29" style="edgeStyle=orthogonalEdgeStyle;rounded=0;orthogonalLoop=1;jettySize=auto;html=1;" parent="WIyWlLk6GJQsqaUBKTNV-1" source="y0eH7fsDz-ZYW2-2zwgD-0" target="y0eH7fsDz-ZYW2-2zwgD-28" edge="1">
          <mxGeometry relative="1" as="geometry" />
        </mxCell>
        <mxCell id="y0eH7fsDz-ZYW2-2zwgD-0" value="CLASS MANAGER" style="rounded=0;whiteSpace=wrap;html=1;" parent="WIyWlLk6GJQsqaUBKTNV-1" vertex="1">
          <mxGeometry x="190" y="550" width="120" height="60" as="geometry" />
        </mxCell>
        <mxCell id="y0eH7fsDz-ZYW2-2zwgD-1" value="ID_ASIST" style="ellipse;whiteSpace=wrap;html=1;fillColor=#7EA6E0;" parent="WIyWlLk6GJQsqaUBKTNV-1" vertex="1">
          <mxGeometry x="120" y="310" width="70" height="40" as="geometry" />
        </mxCell>
        <mxCell id="y0eH7fsDz-ZYW2-2zwgD-2" value="ID_ACTV" style="ellipse;whiteSpace=wrap;html=1;fillColor=#7EA6E0;" parent="WIyWlLk6GJQsqaUBKTNV-1" vertex="1">
          <mxGeometry x="110" y="460" width="70" height="40" as="geometry" />
        </mxCell>
        <mxCell id="y0eH7fsDz-ZYW2-2zwgD-3" value="ID_USER" style="ellipse;whiteSpace=wrap;html=1;fillColor=#7EA6E0;" parent="WIyWlLk6GJQsqaUBKTNV-1" vertex="1">
          <mxGeometry x="430" y="400" width="70" height="40" as="geometry" />
        </mxCell>
        <mxCell id="y0eH7fsDz-ZYW2-2zwgD-4" value="ID_CURSO" style="ellipse;whiteSpace=wrap;html=1;fillColor=#7EA6E0;" parent="WIyWlLk6GJQsqaUBKTNV-1" vertex="1">
          <mxGeometry x="60" y="400" width="70" height="40" as="geometry" />
        </mxCell>
        <mxCell id="y0eH7fsDz-ZYW2-2zwgD-5" value="ID_APP" style="ellipse;whiteSpace=wrap;html=1;fillColor=#FFD966;" parent="WIyWlLk6GJQsqaUBKTNV-1" vertex="1">
          <mxGeometry x="215" y="260" width="70" height="40" as="geometry" />
        </mxCell>
        <mxCell id="y0eH7fsDz-ZYW2-2zwgD-6" value="&lt;font style=&quot;font-size: 11px;&quot;&gt;ID_ESCUELA&lt;/font&gt;" style="ellipse;whiteSpace=wrap;html=1;fillColor=#7EA6E0;" parent="WIyWlLk6GJQsqaUBKTNV-1" vertex="1">
          <mxGeometry x="400" y="510" width="70" height="40" as="geometry" />
        </mxCell>
        <mxCell id="y0eH7fsDz-ZYW2-2zwgD-7" value="&lt;div&gt;&lt;font style=&quot;font-size: 11px;&quot;&gt;ID_LOGIN&lt;/font&gt;&lt;/div&gt;&lt;div&gt;&lt;font size=&quot;3&quot;&gt;&lt;br&gt;&lt;/font&gt;&lt;/div&gt;" style="ellipse;whiteSpace=wrap;html=1;fillColor=#7EA6E0;" parent="WIyWlLk6GJQsqaUBKTNV-1" vertex="1">
          <mxGeometry x="414" y="460" width="76" height="40" as="geometry" />
        </mxCell>
        <mxCell id="y0eH7fsDz-ZYW2-2zwgD-17" value="ID_CALIF" style="ellipse;whiteSpace=wrap;html=1;fillColor=#7EA6E0;" parent="WIyWlLk6GJQsqaUBKTNV-1" vertex="1">
          <mxGeometry x="-20" y="585" width="70" height="40" as="geometry" />
        </mxCell>
        <mxCell id="y0eH7fsDz-ZYW2-2zwgD-18" value="ID_ALUMNO" style="ellipse;whiteSpace=wrap;html=1;fillColor=#7EA6E0;" parent="WIyWlLk6GJQsqaUBKTNV-1" vertex="1">
          <mxGeometry x="510" y="560" width="70" height="40" as="geometry" />
        </mxCell>
        <mxCell id="y0eH7fsDz-ZYW2-2zwgD-19" value="ID_MATERIA" style="ellipse;whiteSpace=wrap;html=1;fillColor=#7EA6E0;" parent="WIyWlLk6GJQsqaUBKTNV-1" vertex="1">
          <mxGeometry x="410" y="610" width="70" height="40" as="geometry" />
        </mxCell>
        <mxCell id="y0eH7fsDz-ZYW2-2zwgD-30" style="edgeStyle=orthogonalEdgeStyle;rounded=0;orthogonalLoop=1;jettySize=auto;html=1;" parent="WIyWlLk6GJQsqaUBKTNV-1" source="y0eH7fsDz-ZYW2-2zwgD-28" edge="1">
          <mxGeometry relative="1" as="geometry">
            <mxPoint x="250" y="840" as="targetPoint" />
          </mxGeometry>
        </mxCell>
        <mxCell id="y0eH7fsDz-ZYW2-2zwgD-28" value="CONTIENE" style="rhombus;whiteSpace=wrap;html=1;fillColor=#67AB9F;" parent="WIyWlLk6GJQsqaUBKTNV-1" vertex="1">
          <mxGeometry x="210" y="680" width="80" height="80" as="geometry" />
        </mxCell>
        <mxCell id="y0eH7fsDz-ZYW2-2zwgD-35" style="edgeStyle=orthogonalEdgeStyle;rounded=0;orthogonalLoop=1;jettySize=auto;html=1;exitX=0;exitY=0.5;exitDx=0;exitDy=0;entryX=1;entryY=0.5;entryDx=0;entryDy=0;" parent="WIyWlLk6GJQsqaUBKTNV-1" source="y0eH7fsDz-ZYW2-2zwgD-31" target="y0eH7fsDz-ZYW2-2zwgD-32" edge="1">
          <mxGeometry relative="1" as="geometry" />
        </mxCell>
        <mxCell id="y0eH7fsDz-ZYW2-2zwgD-37" style="edgeStyle=orthogonalEdgeStyle;rounded=0;orthogonalLoop=1;jettySize=auto;html=1;exitX=0.25;exitY=0;exitDx=0;exitDy=0;entryX=0.714;entryY=1.05;entryDx=0;entryDy=0;entryPerimeter=0;" parent="WIyWlLk6GJQsqaUBKTNV-1" source="y0eH7fsDz-ZYW2-2zwgD-31" target="y0eH7fsDz-ZYW2-2zwgD-33" edge="1">
          <mxGeometry relative="1" as="geometry" />
        </mxCell>
        <mxCell id="y0eH7fsDz-ZYW2-2zwgD-39" style="edgeStyle=orthogonalEdgeStyle;rounded=0;orthogonalLoop=1;jettySize=auto;html=1;exitX=0.75;exitY=0;exitDx=0;exitDy=0;" parent="WIyWlLk6GJQsqaUBKTNV-1" source="y0eH7fsDz-ZYW2-2zwgD-31" edge="1">
          <mxGeometry relative="1" as="geometry">
            <mxPoint x="280" y="810" as="targetPoint" />
          </mxGeometry>
        </mxCell>
        <mxCell id="L2eI6ngjhROVxC0Nq5Qi-0" style="edgeStyle=orthogonalEdgeStyle;rounded=0;orthogonalLoop=1;jettySize=auto;html=1;" parent="WIyWlLk6GJQsqaUBKTNV-1" source="y0eH7fsDz-ZYW2-2zwgD-31" edge="1">
          <mxGeometry relative="1" as="geometry">
            <mxPoint x="390" y="870" as="targetPoint" />
          </mxGeometry>
        </mxCell>
        <mxCell id="y0eH7fsDz-ZYW2-2zwgD-31" value="LOGIN" style="rounded=0;whiteSpace=wrap;html=1;" parent="WIyWlLk6GJQsqaUBKTNV-1" vertex="1">
          <mxGeometry x="190" y="840" width="120" height="60" as="geometry" />
        </mxCell>
        <mxCell id="y0eH7fsDz-ZYW2-2zwgD-32" value="PASSWORD" style="ellipse;whiteSpace=wrap;html=1;" parent="WIyWlLk6GJQsqaUBKTNV-1" vertex="1">
          <mxGeometry x="80" y="850" width="70" height="40" as="geometry" />
        </mxCell>
        <mxCell id="y0eH7fsDz-ZYW2-2zwgD-33" value="ID_LOGIN" style="ellipse;whiteSpace=wrap;html=1;fillColor=#FFD966;" parent="WIyWlLk6GJQsqaUBKTNV-1" vertex="1">
          <mxGeometry x="145" y="760" width="70" height="40" as="geometry" />
        </mxCell>
        <mxCell id="y0eH7fsDz-ZYW2-2zwgD-34" value="NOMBRE USUARIO" style="ellipse;whiteSpace=wrap;html=1;" parent="WIyWlLk6GJQsqaUBKTNV-1" vertex="1">
          <mxGeometry x="260" y="770" width="70" height="40" as="geometry" />
        </mxCell>
        <mxCell id="y0eH7fsDz-ZYW2-2zwgD-42" style="edgeStyle=orthogonalEdgeStyle;rounded=0;orthogonalLoop=1;jettySize=auto;html=1;" parent="WIyWlLk6GJQsqaUBKTNV-1" source="y0eH7fsDz-ZYW2-2zwgD-41" edge="1">
          <mxGeometry relative="1" as="geometry">
            <mxPoint x="250" y="1090" as="targetPoint" />
          </mxGeometry>
        </mxCell>
        <mxCell id="y0eH7fsDz-ZYW2-2zwgD-41" value="TRABAJAN" style="rhombus;whiteSpace=wrap;html=1;fillColor=#67AB9F;" parent="WIyWlLk6GJQsqaUBKTNV-1" vertex="1">
          <mxGeometry x="510" y="970" width="80" height="80" as="geometry" />
        </mxCell>
        <mxCell id="y0eH7fsDz-ZYW2-2zwgD-44" style="edgeStyle=orthogonalEdgeStyle;rounded=0;orthogonalLoop=1;jettySize=auto;html=1;" parent="WIyWlLk6GJQsqaUBKTNV-1" source="y0eH7fsDz-ZYW2-2zwgD-43" edge="1">
          <mxGeometry relative="1" as="geometry">
            <mxPoint x="250" y="1210" as="targetPoint" />
            <Array as="points">
              <mxPoint x="250" y="1165" />
              <mxPoint x="251" y="1165" />
            </Array>
          </mxGeometry>
        </mxCell>
        <mxCell id="L2eI6ngjhROVxC0Nq5Qi-16" style="edgeStyle=orthogonalEdgeStyle;rounded=0;orthogonalLoop=1;jettySize=auto;html=1;exitX=0;exitY=0;exitDx=0;exitDy=0;" parent="WIyWlLk6GJQsqaUBKTNV-1" source="y0eH7fsDz-ZYW2-2zwgD-43" target="L2eI6ngjhROVxC0Nq5Qi-13" edge="1">
          <mxGeometry relative="1" as="geometry" />
        </mxCell>
        <mxCell id="L2eI6ngjhROVxC0Nq5Qi-17" style="edgeStyle=orthogonalEdgeStyle;rounded=0;orthogonalLoop=1;jettySize=auto;html=1;exitX=0;exitY=1;exitDx=0;exitDy=0;" parent="WIyWlLk6GJQsqaUBKTNV-1" source="y0eH7fsDz-ZYW2-2zwgD-43" target="L2eI6ngjhROVxC0Nq5Qi-12" edge="1">
          <mxGeometry relative="1" as="geometry" />
        </mxCell>
        <mxCell id="y0eH7fsDz-ZYW2-2zwgD-43" value="ESCUELAS" style="rounded=0;whiteSpace=wrap;html=1;" parent="WIyWlLk6GJQsqaUBKTNV-1" vertex="1">
          <mxGeometry x="190" y="1090" width="120" height="60" as="geometry" />
        </mxCell>
        <mxCell id="y0eH7fsDz-ZYW2-2zwgD-47" style="edgeStyle=orthogonalEdgeStyle;rounded=0;orthogonalLoop=1;jettySize=auto;html=1;" parent="WIyWlLk6GJQsqaUBKTNV-1" source="y0eH7fsDz-ZYW2-2zwgD-45" edge="1">
          <mxGeometry relative="1" as="geometry">
            <mxPoint x="250" y="1340" as="targetPoint" />
          </mxGeometry>
        </mxCell>
        <mxCell id="y0eH7fsDz-ZYW2-2zwgD-45" value="TIENE" style="rhombus;whiteSpace=wrap;html=1;fillColor=#67AB9F;" parent="WIyWlLk6GJQsqaUBKTNV-1" vertex="1">
          <mxGeometry x="210" y="1210" width="80" height="80" as="geometry" />
        </mxCell>
        <mxCell id="y0eH7fsDz-ZYW2-2zwgD-54" style="edgeStyle=orthogonalEdgeStyle;rounded=0;orthogonalLoop=1;jettySize=auto;html=1;" parent="WIyWlLk6GJQsqaUBKTNV-1" source="y0eH7fsDz-ZYW2-2zwgD-48" edge="1">
          <mxGeometry relative="1" as="geometry">
            <mxPoint x="370" y="1370" as="targetPoint" />
          </mxGeometry>
        </mxCell>
        <mxCell id="nPx2bk-qNklHIH1KgMNL-8" style="edgeStyle=orthogonalEdgeStyle;rounded=0;orthogonalLoop=1;jettySize=auto;html=1;exitX=0.25;exitY=1;exitDx=0;exitDy=0;entryX=0.5;entryY=0;entryDx=0;entryDy=0;" edge="1" parent="WIyWlLk6GJQsqaUBKTNV-1" source="y0eH7fsDz-ZYW2-2zwgD-48" target="nPx2bk-qNklHIH1KgMNL-7">
          <mxGeometry relative="1" as="geometry" />
        </mxCell>
        <mxCell id="nPx2bk-qNklHIH1KgMNL-9" style="edgeStyle=orthogonalEdgeStyle;rounded=0;orthogonalLoop=1;jettySize=auto;html=1;exitX=0;exitY=1;exitDx=0;exitDy=0;entryX=1;entryY=0;entryDx=0;entryDy=0;" edge="1" parent="WIyWlLk6GJQsqaUBKTNV-1" source="y0eH7fsDz-ZYW2-2zwgD-48" target="nPx2bk-qNklHIH1KgMNL-5">
          <mxGeometry relative="1" as="geometry" />
        </mxCell>
        <mxCell id="nPx2bk-qNklHIH1KgMNL-10" style="edgeStyle=orthogonalEdgeStyle;rounded=0;orthogonalLoop=1;jettySize=auto;html=1;exitX=0.75;exitY=1;exitDx=0;exitDy=0;entryX=0.363;entryY=0;entryDx=0;entryDy=0;entryPerimeter=0;" edge="1" parent="WIyWlLk6GJQsqaUBKTNV-1" source="y0eH7fsDz-ZYW2-2zwgD-48" target="nPx2bk-qNklHIH1KgMNL-6">
          <mxGeometry relative="1" as="geometry" />
        </mxCell>
        <mxCell id="nPx2bk-qNklHIH1KgMNL-11" style="edgeStyle=orthogonalEdgeStyle;rounded=0;orthogonalLoop=1;jettySize=auto;html=1;exitX=0.75;exitY=1;exitDx=0;exitDy=0;entryX=0.375;entryY=-0.02;entryDx=0;entryDy=0;entryPerimeter=0;" edge="1" parent="WIyWlLk6GJQsqaUBKTNV-1" source="y0eH7fsDz-ZYW2-2zwgD-48" target="nPx2bk-qNklHIH1KgMNL-3">
          <mxGeometry relative="1" as="geometry" />
        </mxCell>
        <mxCell id="y0eH7fsDz-ZYW2-2zwgD-48" value="CURSOS " style="rounded=0;whiteSpace=wrap;html=1;" parent="WIyWlLk6GJQsqaUBKTNV-1" vertex="1">
          <mxGeometry x="190" y="1340" width="120" height="60" as="geometry" />
        </mxCell>
        <mxCell id="y0eH7fsDz-ZYW2-2zwgD-52" style="edgeStyle=orthogonalEdgeStyle;rounded=0;orthogonalLoop=1;jettySize=auto;html=1;exitX=1;exitY=0.5;exitDx=0;exitDy=0;entryX=0;entryY=0.5;entryDx=0;entryDy=0;" parent="WIyWlLk6GJQsqaUBKTNV-1" source="y0eH7fsDz-ZYW2-2zwgD-50" target="y0eH7fsDz-ZYW2-2zwgD-51" edge="1">
          <mxGeometry relative="1" as="geometry" />
        </mxCell>
        <mxCell id="L2eI6ngjhROVxC0Nq5Qi-25" style="edgeStyle=orthogonalEdgeStyle;rounded=0;orthogonalLoop=1;jettySize=auto;html=1;exitX=0;exitY=1;exitDx=0;exitDy=0;" parent="WIyWlLk6GJQsqaUBKTNV-1" source="y0eH7fsDz-ZYW2-2zwgD-50" target="L2eI6ngjhROVxC0Nq5Qi-18" edge="1">
          <mxGeometry relative="1" as="geometry" />
        </mxCell>
        <mxCell id="L2eI6ngjhROVxC0Nq5Qi-26" style="edgeStyle=orthogonalEdgeStyle;rounded=0;orthogonalLoop=1;jettySize=auto;html=1;exitX=0.25;exitY=0;exitDx=0;exitDy=0;entryX=1;entryY=0.5;entryDx=0;entryDy=0;" parent="WIyWlLk6GJQsqaUBKTNV-1" source="y0eH7fsDz-ZYW2-2zwgD-50" target="L2eI6ngjhROVxC0Nq5Qi-20" edge="1">
          <mxGeometry relative="1" as="geometry" />
        </mxCell>
        <mxCell id="L2eI6ngjhROVxC0Nq5Qi-28" style="edgeStyle=orthogonalEdgeStyle;rounded=0;orthogonalLoop=1;jettySize=auto;html=1;exitX=0.75;exitY=0;exitDx=0;exitDy=0;entryX=0.5;entryY=1;entryDx=0;entryDy=0;" parent="WIyWlLk6GJQsqaUBKTNV-1" source="y0eH7fsDz-ZYW2-2zwgD-50" target="L2eI6ngjhROVxC0Nq5Qi-19" edge="1">
          <mxGeometry relative="1" as="geometry" />
        </mxCell>
        <mxCell id="y0eH7fsDz-ZYW2-2zwgD-50" value="ALUMNOS " style="rounded=0;whiteSpace=wrap;html=1;" parent="WIyWlLk6GJQsqaUBKTNV-1" vertex="1">
          <mxGeometry x="-120" y="1340" width="120" height="60" as="geometry" />
        </mxCell>
        <mxCell id="y0eH7fsDz-ZYW2-2zwgD-53" style="edgeStyle=orthogonalEdgeStyle;rounded=0;orthogonalLoop=1;jettySize=auto;html=1;exitX=1;exitY=0.5;exitDx=0;exitDy=0;entryX=0;entryY=0.5;entryDx=0;entryDy=0;" parent="WIyWlLk6GJQsqaUBKTNV-1" source="y0eH7fsDz-ZYW2-2zwgD-51" target="y0eH7fsDz-ZYW2-2zwgD-48" edge="1">
          <mxGeometry relative="1" as="geometry" />
        </mxCell>
        <mxCell id="y0eH7fsDz-ZYW2-2zwgD-51" value="&lt;font style=&quot;font-size: 11px;&quot;&gt;PERTENECEN&lt;/font&gt;" style="rhombus;whiteSpace=wrap;html=1;fillColor=#67AB9F;" parent="WIyWlLk6GJQsqaUBKTNV-1" vertex="1">
          <mxGeometry x="50" y="1330" width="80" height="80" as="geometry" />
        </mxCell>
        <mxCell id="y0eH7fsDz-ZYW2-2zwgD-57" style="edgeStyle=orthogonalEdgeStyle;rounded=0;orthogonalLoop=1;jettySize=auto;html=1;" parent="WIyWlLk6GJQsqaUBKTNV-1" source="y0eH7fsDz-ZYW2-2zwgD-55" target="y0eH7fsDz-ZYW2-2zwgD-56" edge="1">
          <mxGeometry relative="1" as="geometry" />
        </mxCell>
        <mxCell id="y0eH7fsDz-ZYW2-2zwgD-55" value="TIENEN " style="rhombus;whiteSpace=wrap;html=1;fillColor=#67AB9F;" parent="WIyWlLk6GJQsqaUBKTNV-1" vertex="1">
          <mxGeometry x="370" y="1330" width="80" height="80" as="geometry" />
        </mxCell>
        <mxCell id="y0eH7fsDz-ZYW2-2zwgD-60" style="edgeStyle=orthogonalEdgeStyle;rounded=0;orthogonalLoop=1;jettySize=auto;html=1;exitX=0.5;exitY=0;exitDx=0;exitDy=0;" parent="WIyWlLk6GJQsqaUBKTNV-1" source="y0eH7fsDz-ZYW2-2zwgD-56" target="y0eH7fsDz-ZYW2-2zwgD-58" edge="1">
          <mxGeometry relative="1" as="geometry" />
        </mxCell>
        <mxCell id="y0eH7fsDz-ZYW2-2zwgD-62" style="edgeStyle=orthogonalEdgeStyle;rounded=0;orthogonalLoop=1;jettySize=auto;html=1;exitX=1;exitY=0.5;exitDx=0;exitDy=0;entryX=0;entryY=0.5;entryDx=0;entryDy=0;" parent="WIyWlLk6GJQsqaUBKTNV-1" edge="1" target="y0eH7fsDz-ZYW2-2zwgD-63">
          <mxGeometry relative="1" as="geometry">
            <mxPoint x="712" y="1370" as="targetPoint" />
            <mxPoint x="652" y="1370" as="sourcePoint" />
          </mxGeometry>
        </mxCell>
        <mxCell id="nPx2bk-qNklHIH1KgMNL-16" style="edgeStyle=orthogonalEdgeStyle;rounded=0;orthogonalLoop=1;jettySize=auto;html=1;exitX=0;exitY=1;exitDx=0;exitDy=0;entryX=0.5;entryY=0;entryDx=0;entryDy=0;" edge="1" parent="WIyWlLk6GJQsqaUBKTNV-1" source="y0eH7fsDz-ZYW2-2zwgD-56" target="nPx2bk-qNklHIH1KgMNL-13">
          <mxGeometry relative="1" as="geometry" />
        </mxCell>
        <mxCell id="nPx2bk-qNklHIH1KgMNL-17" style="edgeStyle=orthogonalEdgeStyle;rounded=0;orthogonalLoop=1;jettySize=auto;html=1;exitX=0.25;exitY=1;exitDx=0;exitDy=0;entryX=0.225;entryY=0.02;entryDx=0;entryDy=0;entryPerimeter=0;" edge="1" parent="WIyWlLk6GJQsqaUBKTNV-1" source="y0eH7fsDz-ZYW2-2zwgD-56" target="nPx2bk-qNklHIH1KgMNL-14">
          <mxGeometry relative="1" as="geometry" />
        </mxCell>
        <mxCell id="nPx2bk-qNklHIH1KgMNL-20" style="edgeStyle=orthogonalEdgeStyle;rounded=0;orthogonalLoop=1;jettySize=auto;html=1;exitX=1;exitY=0.75;exitDx=0;exitDy=0;" edge="1" parent="WIyWlLk6GJQsqaUBKTNV-1" source="y0eH7fsDz-ZYW2-2zwgD-56" target="nPx2bk-qNklHIH1KgMNL-12">
          <mxGeometry relative="1" as="geometry" />
        </mxCell>
        <mxCell id="nPx2bk-qNklHIH1KgMNL-21" style="edgeStyle=orthogonalEdgeStyle;rounded=0;orthogonalLoop=1;jettySize=auto;html=1;exitX=0.75;exitY=1;exitDx=0;exitDy=0;entryX=0;entryY=0;entryDx=0;entryDy=0;" edge="1" parent="WIyWlLk6GJQsqaUBKTNV-1" source="y0eH7fsDz-ZYW2-2zwgD-56" target="nPx2bk-qNklHIH1KgMNL-15">
          <mxGeometry relative="1" as="geometry" />
        </mxCell>
        <mxCell id="y0eH7fsDz-ZYW2-2zwgD-56" value="&lt;div&gt;MATERIAS&lt;/div&gt;" style="rounded=0;whiteSpace=wrap;html=1;" parent="WIyWlLk6GJQsqaUBKTNV-1" vertex="1">
          <mxGeometry x="580" y="1340" width="120" height="60" as="geometry" />
        </mxCell>
        <mxCell id="y0eH7fsDz-ZYW2-2zwgD-61" style="edgeStyle=orthogonalEdgeStyle;rounded=0;orthogonalLoop=1;jettySize=auto;html=1;exitX=0.5;exitY=0;exitDx=0;exitDy=0;" parent="WIyWlLk6GJQsqaUBKTNV-1" source="y0eH7fsDz-ZYW2-2zwgD-58" target="y0eH7fsDz-ZYW2-2zwgD-59" edge="1">
          <mxGeometry relative="1" as="geometry" />
        </mxCell>
        <mxCell id="y0eH7fsDz-ZYW2-2zwgD-58" value="CUENTAN" style="rhombus;whiteSpace=wrap;html=1;fillColor=#67AB9F;" parent="WIyWlLk6GJQsqaUBKTNV-1" vertex="1">
          <mxGeometry x="600" y="1200" width="80" height="80" as="geometry" />
        </mxCell>
        <mxCell id="nPx2bk-qNklHIH1KgMNL-35" style="edgeStyle=orthogonalEdgeStyle;rounded=0;orthogonalLoop=1;jettySize=auto;html=1;exitX=1;exitY=0.5;exitDx=0;exitDy=0;entryX=0;entryY=0.5;entryDx=0;entryDy=0;" edge="1" parent="WIyWlLk6GJQsqaUBKTNV-1" source="y0eH7fsDz-ZYW2-2zwgD-59" target="nPx2bk-qNklHIH1KgMNL-33">
          <mxGeometry relative="1" as="geometry" />
        </mxCell>
        <mxCell id="nPx2bk-qNklHIH1KgMNL-36" style="edgeStyle=orthogonalEdgeStyle;rounded=0;orthogonalLoop=1;jettySize=auto;html=1;exitX=0.5;exitY=0;exitDx=0;exitDy=0;entryX=0;entryY=0.5;entryDx=0;entryDy=0;" edge="1" parent="WIyWlLk6GJQsqaUBKTNV-1" source="y0eH7fsDz-ZYW2-2zwgD-59" target="nPx2bk-qNklHIH1KgMNL-32">
          <mxGeometry relative="1" as="geometry" />
        </mxCell>
        <mxCell id="y0eH7fsDz-ZYW2-2zwgD-59" value="ASISTENCIA " style="rounded=0;whiteSpace=wrap;html=1;" parent="WIyWlLk6GJQsqaUBKTNV-1" vertex="1">
          <mxGeometry x="580" y="1070" width="120" height="60" as="geometry" />
        </mxCell>
        <mxCell id="nPx2bk-qNklHIH1KgMNL-19" style="edgeStyle=orthogonalEdgeStyle;rounded=0;orthogonalLoop=1;jettySize=auto;html=1;entryX=0.5;entryY=0;entryDx=0;entryDy=0;" edge="1" parent="WIyWlLk6GJQsqaUBKTNV-1" source="y0eH7fsDz-ZYW2-2zwgD-63" target="y0eH7fsDz-ZYW2-2zwgD-65">
          <mxGeometry relative="1" as="geometry" />
        </mxCell>
        <mxCell id="y0eH7fsDz-ZYW2-2zwgD-63" value="HACEN " style="rhombus;whiteSpace=wrap;html=1;fillColor=#67AB9F;" parent="WIyWlLk6GJQsqaUBKTNV-1" vertex="1">
          <mxGeometry x="910" y="1330" width="80" height="80" as="geometry" />
        </mxCell>
        <mxCell id="nPx2bk-qNklHIH1KgMNL-28" style="edgeStyle=orthogonalEdgeStyle;rounded=0;orthogonalLoop=1;jettySize=auto;html=1;exitX=0;exitY=0.5;exitDx=0;exitDy=0;entryX=1;entryY=0.5;entryDx=0;entryDy=0;" edge="1" parent="WIyWlLk6GJQsqaUBKTNV-1" source="y0eH7fsDz-ZYW2-2zwgD-65" target="nPx2bk-qNklHIH1KgMNL-25">
          <mxGeometry relative="1" as="geometry" />
        </mxCell>
        <mxCell id="nPx2bk-qNklHIH1KgMNL-29" style="edgeStyle=orthogonalEdgeStyle;rounded=0;orthogonalLoop=1;jettySize=auto;html=1;exitX=0;exitY=0.75;exitDx=0;exitDy=0;entryX=1;entryY=0;entryDx=0;entryDy=0;" edge="1" parent="WIyWlLk6GJQsqaUBKTNV-1" source="y0eH7fsDz-ZYW2-2zwgD-65" target="nPx2bk-qNklHIH1KgMNL-24">
          <mxGeometry relative="1" as="geometry" />
        </mxCell>
        <mxCell id="nPx2bk-qNklHIH1KgMNL-30" style="edgeStyle=orthogonalEdgeStyle;rounded=0;orthogonalLoop=1;jettySize=auto;html=1;exitX=0.25;exitY=1;exitDx=0;exitDy=0;entryX=0.688;entryY=-0.04;entryDx=0;entryDy=0;entryPerimeter=0;" edge="1" parent="WIyWlLk6GJQsqaUBKTNV-1" source="y0eH7fsDz-ZYW2-2zwgD-65" target="nPx2bk-qNklHIH1KgMNL-26">
          <mxGeometry relative="1" as="geometry" />
        </mxCell>
        <mxCell id="nPx2bk-qNklHIH1KgMNL-31" style="edgeStyle=orthogonalEdgeStyle;rounded=0;orthogonalLoop=1;jettySize=auto;html=1;exitX=0.25;exitY=0;exitDx=0;exitDy=0;entryX=1;entryY=0.5;entryDx=0;entryDy=0;" edge="1" parent="WIyWlLk6GJQsqaUBKTNV-1" source="y0eH7fsDz-ZYW2-2zwgD-65" target="nPx2bk-qNklHIH1KgMNL-23">
          <mxGeometry relative="1" as="geometry" />
        </mxCell>
        <mxCell id="y0eH7fsDz-ZYW2-2zwgD-65" value="ACTIVIDADES" style="rounded=0;whiteSpace=wrap;html=1;" parent="WIyWlLk6GJQsqaUBKTNV-1" vertex="1">
          <mxGeometry x="890" y="1560" width="120" height="60" as="geometry" />
        </mxCell>
        <mxCell id="L2eI6ngjhROVxC0Nq5Qi-2" style="edgeStyle=orthogonalEdgeStyle;rounded=0;orthogonalLoop=1;jettySize=auto;html=1;" parent="WIyWlLk6GJQsqaUBKTNV-1" source="L2eI6ngjhROVxC0Nq5Qi-1" edge="1">
          <mxGeometry relative="1" as="geometry">
            <mxPoint x="570" y="870" as="targetPoint" />
          </mxGeometry>
        </mxCell>
        <mxCell id="L2eI6ngjhROVxC0Nq5Qi-1" value="CREAR" style="rhombus;whiteSpace=wrap;html=1;" parent="WIyWlLk6GJQsqaUBKTNV-1" vertex="1">
          <mxGeometry x="395" y="830" width="80" height="80" as="geometry" />
        </mxCell>
        <mxCell id="L2eI6ngjhROVxC0Nq5Qi-5" style="edgeStyle=orthogonalEdgeStyle;rounded=0;orthogonalLoop=1;jettySize=auto;html=1;" parent="WIyWlLk6GJQsqaUBKTNV-1" source="L2eI6ngjhROVxC0Nq5Qi-3" target="y0eH7fsDz-ZYW2-2zwgD-41" edge="1">
          <mxGeometry relative="1" as="geometry" />
        </mxCell>
        <mxCell id="L2eI6ngjhROVxC0Nq5Qi-9" style="edgeStyle=orthogonalEdgeStyle;rounded=0;orthogonalLoop=1;jettySize=auto;html=1;exitX=1;exitY=0.5;exitDx=0;exitDy=0;" parent="WIyWlLk6GJQsqaUBKTNV-1" source="L2eI6ngjhROVxC0Nq5Qi-3" target="L2eI6ngjhROVxC0Nq5Qi-6" edge="1">
          <mxGeometry relative="1" as="geometry" />
        </mxCell>
        <mxCell id="L2eI6ngjhROVxC0Nq5Qi-11" style="edgeStyle=orthogonalEdgeStyle;rounded=0;orthogonalLoop=1;jettySize=auto;html=1;exitX=0.25;exitY=0;exitDx=0;exitDy=0;entryX=0.5;entryY=1;entryDx=0;entryDy=0;" parent="WIyWlLk6GJQsqaUBKTNV-1" source="L2eI6ngjhROVxC0Nq5Qi-3" target="L2eI6ngjhROVxC0Nq5Qi-7" edge="1">
          <mxGeometry relative="1" as="geometry" />
        </mxCell>
        <mxCell id="L2eI6ngjhROVxC0Nq5Qi-3" value="DOCENTES" style="rounded=0;whiteSpace=wrap;html=1;" parent="WIyWlLk6GJQsqaUBKTNV-1" vertex="1">
          <mxGeometry x="570" y="840" width="120" height="60" as="geometry" />
        </mxCell>
        <mxCell id="L2eI6ngjhROVxC0Nq5Qi-6" value="ID_USER" style="ellipse;whiteSpace=wrap;html=1;fillColor=#FFD966;" parent="WIyWlLk6GJQsqaUBKTNV-1" vertex="1">
          <mxGeometry x="720" y="810" width="70" height="40" as="geometry" />
        </mxCell>
        <mxCell id="L2eI6ngjhROVxC0Nq5Qi-7" value="NOMBRE_APELLIDO" style="ellipse;whiteSpace=wrap;html=1;" parent="WIyWlLk6GJQsqaUBKTNV-1" vertex="1">
          <mxGeometry x="580" y="760" width="130" height="40" as="geometry" />
        </mxCell>
        <mxCell id="L2eI6ngjhROVxC0Nq5Qi-12" value="&lt;div&gt;NOMBRE&lt;/div&gt;&lt;div&gt;ESCUELA&lt;br&gt;&lt;/div&gt;" style="ellipse;whiteSpace=wrap;html=1;" parent="WIyWlLk6GJQsqaUBKTNV-1" vertex="1">
          <mxGeometry x="70" y="1120" width="80" height="40" as="geometry" />
        </mxCell>
        <mxCell id="L2eI6ngjhROVxC0Nq5Qi-13" value="ID_ESCUELA" style="ellipse;whiteSpace=wrap;html=1;fillColor=#FFD966;" parent="WIyWlLk6GJQsqaUBKTNV-1" vertex="1">
          <mxGeometry x="90" y="1050" width="80" height="40" as="geometry" />
        </mxCell>
        <mxCell id="L2eI6ngjhROVxC0Nq5Qi-18" value="ID_ALUMNO" style="ellipse;whiteSpace=wrap;html=1;fillColor=#FFD966;" parent="WIyWlLk6GJQsqaUBKTNV-1" vertex="1">
          <mxGeometry x="-220" y="1360" width="70" height="40" as="geometry" />
        </mxCell>
        <mxCell id="L2eI6ngjhROVxC0Nq5Qi-19" value="ID_CURSO" style="ellipse;whiteSpace=wrap;html=1;fillColor=#7EA6E0;" parent="WIyWlLk6GJQsqaUBKTNV-1" vertex="1">
          <mxGeometry x="-60" y="1260" width="70" height="40" as="geometry" />
        </mxCell>
        <mxCell id="L2eI6ngjhROVxC0Nq5Qi-20" value="NOMBRE_APELL" style="ellipse;whiteSpace=wrap;html=1;" parent="WIyWlLk6GJQsqaUBKTNV-1" vertex="1">
          <mxGeometry x="-250" y="1280" width="110" height="40" as="geometry" />
        </mxCell>
        <mxCell id="L2eI6ngjhROVxC0Nq5Qi-31" value="" style="ellipse;whiteSpace=wrap;html=1;aspect=fixed;fillColor=#A9C4EB;" parent="WIyWlLk6GJQsqaUBKTNV-1" vertex="1">
          <mxGeometry x="-200" y="940" width="40" height="40" as="geometry" />
        </mxCell>
        <mxCell id="L2eI6ngjhROVxC0Nq5Qi-32" value="" style="ellipse;whiteSpace=wrap;html=1;aspect=fixed;fillColor=#FFD966;" parent="WIyWlLk6GJQsqaUBKTNV-1" vertex="1">
          <mxGeometry x="-200" y="990" width="40" height="40" as="geometry" />
        </mxCell>
        <mxCell id="L2eI6ngjhROVxC0Nq5Qi-33" value="LLAVE FORANEA" style="text;html=1;strokeColor=none;fillColor=none;align=center;verticalAlign=middle;whiteSpace=wrap;rounded=0;" parent="WIyWlLk6GJQsqaUBKTNV-1" vertex="1">
          <mxGeometry x="-160" y="947" width="110" height="30" as="geometry" />
        </mxCell>
        <mxCell id="L2eI6ngjhROVxC0Nq5Qi-34" value="LLAVE PRIMARIA" style="text;html=1;strokeColor=none;fillColor=none;align=center;verticalAlign=middle;whiteSpace=wrap;rounded=0;" parent="WIyWlLk6GJQsqaUBKTNV-1" vertex="1">
          <mxGeometry x="-160" y="999" width="110" height="30" as="geometry" />
        </mxCell>
        <mxCell id="nPx2bk-qNklHIH1KgMNL-3" value="HORARIO" style="ellipse;whiteSpace=wrap;html=1;" vertex="1" parent="WIyWlLk6GJQsqaUBKTNV-1">
          <mxGeometry x="250" y="1500" width="80" height="50" as="geometry" />
        </mxCell>
        <mxCell id="nPx2bk-qNklHIH1KgMNL-5" value="DIVISION " style="ellipse;whiteSpace=wrap;html=1;" vertex="1" parent="WIyWlLk6GJQsqaUBKTNV-1">
          <mxGeometry x="75" y="1440" width="80" height="50" as="geometry" />
        </mxCell>
        <mxCell id="nPx2bk-qNklHIH1KgMNL-6" value="TURNO" style="ellipse;whiteSpace=wrap;html=1;" vertex="1" parent="WIyWlLk6GJQsqaUBKTNV-1">
          <mxGeometry x="310" y="1440" width="80" height="50" as="geometry" />
        </mxCell>
        <mxCell id="nPx2bk-qNklHIH1KgMNL-7" value="ID_CURSO" style="ellipse;whiteSpace=wrap;html=1;fillColor=#FFD966;" vertex="1" parent="WIyWlLk6GJQsqaUBKTNV-1">
          <mxGeometry x="160" y="1470" width="80" height="50" as="geometry" />
        </mxCell>
        <mxCell id="nPx2bk-qNklHIH1KgMNL-12" value="HORARIO" style="ellipse;whiteSpace=wrap;html=1;" vertex="1" parent="WIyWlLk6GJQsqaUBKTNV-1">
          <mxGeometry x="750" y="1380" width="80" height="50" as="geometry" />
        </mxCell>
        <mxCell id="nPx2bk-qNklHIH1KgMNL-13" value="ID_MATERIA" style="ellipse;whiteSpace=wrap;html=1;fillColor=#FFD966;" vertex="1" parent="WIyWlLk6GJQsqaUBKTNV-1">
          <mxGeometry x="480" y="1430" width="80" height="50" as="geometry" />
        </mxCell>
        <mxCell id="nPx2bk-qNklHIH1KgMNL-14" value="NOM_MAT" style="ellipse;whiteSpace=wrap;html=1;" vertex="1" parent="WIyWlLk6GJQsqaUBKTNV-1">
          <mxGeometry x="580" y="1440" width="80" height="50" as="geometry" />
        </mxCell>
        <mxCell id="nPx2bk-qNklHIH1KgMNL-15" value="DIA_MAT" style="ellipse;whiteSpace=wrap;html=1;" vertex="1" parent="WIyWlLk6GJQsqaUBKTNV-1">
          <mxGeometry x="665" y="1420" width="80" height="50" as="geometry" />
        </mxCell>
        <mxCell id="nPx2bk-qNklHIH1KgMNL-23" value="ID_ACTIVIDAD" style="ellipse;whiteSpace=wrap;html=1;fillColor=#FFD966;" vertex="1" parent="WIyWlLk6GJQsqaUBKTNV-1">
          <mxGeometry x="800" y="1500" width="80" height="50" as="geometry" />
        </mxCell>
        <mxCell id="nPx2bk-qNklHIH1KgMNL-24" value="FECH_ENTREGA" style="ellipse;whiteSpace=wrap;html=1;" vertex="1" parent="WIyWlLk6GJQsqaUBKTNV-1">
          <mxGeometry x="720" y="1630" width="100" height="40" as="geometry" />
        </mxCell>
        <mxCell id="nPx2bk-qNklHIH1KgMNL-25" value="CALIF" style="ellipse;whiteSpace=wrap;html=1;" vertex="1" parent="WIyWlLk6GJQsqaUBKTNV-1">
          <mxGeometry x="720" y="1560" width="80" height="50" as="geometry" />
        </mxCell>
        <mxCell id="nPx2bk-qNklHIH1KgMNL-26" value="NOM_ACT" style="ellipse;whiteSpace=wrap;html=1;" vertex="1" parent="WIyWlLk6GJQsqaUBKTNV-1">
          <mxGeometry x="850" y="1660" width="80" height="50" as="geometry" />
        </mxCell>
        <mxCell id="nPx2bk-qNklHIH1KgMNL-32" value="ID_ASIST" style="ellipse;whiteSpace=wrap;html=1;fillColor=#FFD966;" vertex="1" parent="WIyWlLk6GJQsqaUBKTNV-1">
          <mxGeometry x="690" y="999" width="80" height="50" as="geometry" />
        </mxCell>
        <mxCell id="nPx2bk-qNklHIH1KgMNL-33" value="FECH_ASIST" style="ellipse;whiteSpace=wrap;html=1;" vertex="1" parent="WIyWlLk6GJQsqaUBKTNV-1">
          <mxGeometry x="747" y="1075" width="80" height="50" as="geometry" />
        </mxCell>
      </root>
    </mxGraphModel>
  </diagram>
  <diagram id="sv4UxOTONEO7V7UolK48" name="Página-2">
    <mxGraphModel dx="871" dy="434" grid="1" gridSize="10" guides="1" tooltips="1" connect="1" arrows="1" fold="1" page="1" pageScale="1" pageWidth="827" pageHeight="1169" math="0" shadow="0">
      <root>
        <mxCell id="0" />
        <mxCell id="1" parent="0" />
      </root>
    </mxGraphModel>
  </diagram>
</mxfile>
